# xmcd
#
# Track frame offsets:
# 225
# 14245
# 32829
#
# Disc length: 606 seconds
#
#
# Revision: 0
# Processed by: cddbd v1.5.1PL2 Copyright (c) Steve Scherf et al.
# Submitted via: Nero 7, 0, 5, 4 
#
DISCID=23025b03
DTITLE=Rheinstone Cowboys - Cowboys küssen sowieso
DYEAR=1998
DGENRE=country
TTITLE0=Cowboys küssen sowieso (Single 2000)
TTITLE1=Lonesome Blue
TTITLE2=Old Kentucky
EXTD=
EXTT0=
EXTT1=
EXTT2=
PLAYORDER=
